<?xml version="1.0" standalone="no"?><!DOCTYPE svg PUBLIC "-//W3C//DTD SVG 1.1//EN" "http://www.w3.org/Graphics/SVG/1.1/DTD/svg11.dtd"><svg t="1585146174084" class="icon" viewBox="0 0 1024 1024" version="1.1" xmlns="http://www.w3.org/2000/svg" p-id="2417" width="16" height="16" xmlns:xlink="http://www.w3.org/1999/xlink"><defs><style type="text/css"></style></defs><path d="M488.009143 0C219.209143 0 0 218.624 0 487.643429a487.936 487.936 0 0 0 488.009143 487.570285c268.8 0 487.204571-218.550857 487.204571-487.570285C975.213714 218.624 756.809143 0 488.082286 0z m0 907.117714c-230.985143 0-419.108571-188.269714-419.108572-419.474285C68.900571 256.438857 257.024 68.022857 488.009143 68.022857c231.058286 0 419.181714 188.342857 419.181714 419.547429 0 231.131429-188.123429 419.474286-419.108571 419.474285zM712.411429 448.950857H522.459429v-190.902857a34.084571 34.084571 0 0 0-34.377143-34.377143 34.084571 34.084571 0 0 0-34.450286 34.377143v190.025143H263.753143a34.084571 34.084571 0 0 0-34.377143 34.523428c0 19.309714 15.067429 34.450286 34.377143 34.450286h189.878857v190.025143c0 19.309714 15.067429 34.377143 34.377143 34.377143 19.382857 0 34.450286-15.067429 34.450286-34.377143V517.046857H712.411429c19.309714 0 34.377143-15.140571 34.377142-34.450286a33.353143 33.353143 0 0 0-34.377142-33.645714z" p-id="2418" fill="#ffffff"></path></svg>