<?xml version="1.0" standalone="no"?><!DOCTYPE svg PUBLIC "-//W3C//DTD SVG 1.1//EN" "http://www.w3.org/Graphics/SVG/1.1/DTD/svg11.dtd"><svg t="1584691559279" class="icon" viewBox="0 0 1024 1024" version="1.1" xmlns="http://www.w3.org/2000/svg" p-id="6806" xmlns:xlink="http://www.w3.org/1999/xlink" width="32" height="32"><defs><style type="text/css"></style></defs><path d="M512.002047 80.680531c-234.267535 0-424.174746 189.902094-424.174746 424.157349 0 234.253208 189.907211 424.156326 424.174746 424.156326 234.262418 0 424.170652-189.902094 424.170652-424.156326C936.172699 270.582625 746.265488 80.680531 512.002047 80.680531L512.002047 80.680531zM511.531326 868.618117c-200.606901 0-363.231745-162.615635-363.231745-363.208209 0-200.597691 162.624844-363.212302 363.231745-363.212302 200.602807 0 363.226628 162.614611 363.226628 363.212302C874.757954 706.002482 712.13311 868.618117 511.531326 868.618117L511.531326 868.618117zM542.040177 292.356534l-61.434188 0 0 182.100408L299.400974 474.456942l0 60.536748 181.205015 0L480.605989 717.095122l61.434188 0L542.040177 534.994714l182.179203 0 0-60.536748-182.179203 0L542.040177 292.356534zM542.040177 292.356534" p-id="6807" fill="#6200EE"></path></svg>