<?xml version="1.0" standalone="no"?><!DOCTYPE svg PUBLIC "-//W3C//DTD SVG 1.1//EN" "http://www.w3.org/Graphics/SVG/1.1/DTD/svg11.dtd"><svg t="1583766021961" class="icon" viewBox="0 0 1025 1024" version="1.1" xmlns="http://www.w3.org/2000/svg" p-id="1967" xmlns:xlink="http://www.w3.org/1999/xlink" width="32.03125" height="32"><defs><style type="text/css"></style></defs><path d="M196.366766 413.714423s-31.234402-215.801324 173.776856-227.159289 197.628581 201.035971 190.813803 227.159289c0 0 28.394911 10.790066 32.370198 34.073893a137.43137 137.43137 0 0 1-20.444336 94.271105 155.036215 155.036215 0 0 1-44.863959 35.777588 199.900174 199.900174 0 0 1-41.45657 78.937853V682.89818a672.959393 672.959393 0 0 1 199.332275 100.517985 270.887452 270.887452 0 0 1 70.41938 153.33252c0 40.888672 0 44.86396-84.048937 63.036703A1581.02865 1581.02865 0 0 1 398.538533 1023.637113a1432.807214 1432.807214 0 0 1-328.81307-30.666504C-13.755576 966.847291 1.009778 958.896716 1.009778 931.637601a241.356744 241.356744 0 0 1 85.752631-167.529975A642.292889 642.292889 0 0 1 273.600924 682.89818v-23.283827a199.332276 199.332276 0 0 1-45.431857-82.913141S187.848293 569.318535 171.379244 502.306545s11.925863-84.616835 24.987522-88.592122z" fill="#6200EE" p-id="1968"></path><path d="M1023.226577 748.206475a270.319554 270.319554 0 0 0-70.419379-153.33252 672.391495 672.391495 0 0 0-199.332276-100.517985v-23.851725A198.764378 198.764378 0 0 0 796.067289 391.566392a153.900418 153.900418 0 0 0 44.863959-35.777588 137.999268 137.999268 0 0 0 20.444336-94.271105c-3.407389-23.283827-31.8023-34.073893-31.8023-34.073893 7.382677-24.987522 14.197456-236.24566-190.813803-227.159289a164.122586 164.122586 0 0 0-162.418891 108.46856 242.492541 242.492541 0 0 1 120.962321 84.616835 316.31931 316.31931 0 0 1 56.789822 177.752144 127.7771 127.7771 0 0 1 28.394911 62.468804 227.159289 227.159289 0 0 1-41.45657 170.369467 227.159289 227.159289 0 0 1-28.394911 28.394911 448.639595 448.639595 0 0 1 138.567166 86.888428 370.837539 370.837539 0 0 1 70.41938 110.740153 1026.759985 1026.759985 0 0 0 113.579644-16.469048C1023.226577 793.070435 1023.226577 788.527249 1023.226577 748.206475z" fill="#6200EE" p-id="1969"></path></svg>