<?xml version="1.0" standalone="no"?><!DOCTYPE svg PUBLIC "-//W3C//DTD SVG 1.1//EN" "http://www.w3.org/Graphics/SVG/1.1/DTD/svg11.dtd"><svg t="1583675024313" class="icon" viewBox="0 0 1024 1024" version="1.1" xmlns="http://www.w3.org/2000/svg" p-id="1978" xmlns:xlink="http://www.w3.org/1999/xlink" width="32" height="32"><defs><style type="text/css"></style></defs><path d="M722.346667 740.096a32 32 0 0 1 32-32H896a32 32 0 0 1 0 64h-141.653333a32 32 0 0 1-32-32z" fill="#6200EE" p-id="1979"></path><path d="M826.154667 630.485333a32 32 0 0 1 32 32v159.573334a32 32 0 0 1-64 0v-159.573334a32 32 0 0 1 32-32z" fill="#6200EE" p-id="1980"></path><path d="M347.178667 191.402667c19.669333-2.645333 37.589333 12.629333 40.021333 34.133333 2.432 21.461333-11.562667 41.045333-31.232 43.690667a142.634667 142.634667 0 0 0-29.738667 275.2c18.773333 6.826667 28.928 29.056 22.613334 49.578666-6.314667 20.522667-26.624 31.573333-45.44 24.746667-84.48-30.976-142.506667-113.621333-142.506667-208.298667 0-111.786667 80.64-204.842667 186.282667-219.050666z" fill="#6200EE" p-id="1981"></path><path d="M134.058667 766.933333c-10.837333 18.133333-33.066667 23.210667-49.706667 11.392-16.597333-11.818667-21.248-36.138667-10.410667-54.272 4.992-8.32 14.762667-22.784 24.192-36.181333 46.208-65.621333 114.090667-113.322667 198.826667-144.938667 18.730667-6.997333 39.125333 3.925333 45.568 24.405334 6.4 20.48-3.626667 42.794667-22.357333 49.792-72.32 26.965333-128.384 66.389333-165.12 118.528-8.277333 11.776-17.365333 25.173333-20.992 31.274666zM308.138667 838.570667a33.834667 33.834667 0 0 1-50.645334 3.754666 41.770667 41.770667 0 0 1-3.413333-55.338666c7.850667-9.813333 23.381333-27.093333 38.144-42.922667 71.594667-76.629333 168.874667-125.696 286.08-150.272 19.498667-4.096 38.314667 9.813333 42.026667 31.146667 3.754667 21.205333-8.96 41.770667-28.458667 45.866666-104.32 21.845333-188.885333 64.469333-249.344 129.28-13.44 14.378667-28.16 30.72-34.389333 38.485334z" fill="#6200EE" p-id="1982"></path><path d="M383.402667 418.944c0 137.088 101.802667 248.234667 227.370666 248.234667 125.568 0 227.328-111.146667 227.328-248.234667C838.101333 281.813333 736.341333 170.666667 610.773333 170.666667c-125.568 0-227.370667 111.146667-227.370666 248.277333z m382.933333 0c0 93.781333-69.674667 169.813333-155.562667 169.813333-85.930667 0-155.562667-75.989333-155.562666-169.813333 0-93.866667 69.632-169.898667 155.562666-169.898667 85.888 0 155.562667 76.074667 155.562667 169.898667z" fill="#6200EE" p-id="1983"></path></svg>