<?xml version="1.0" standalone="no"?><!DOCTYPE svg PUBLIC "-//W3C//DTD SVG 1.1//EN" "http://www.w3.org/Graphics/SVG/1.1/DTD/svg11.dtd"><svg t="1584691484024" class="icon" viewBox="0 0 1024 1024" version="1.1" xmlns="http://www.w3.org/2000/svg" p-id="5586" xmlns:xlink="http://www.w3.org/1999/xlink" width="32" height="32"><defs><style type="text/css"></style></defs><path d="M512 512m-480 0a480 480 0 1 0 960 0 480 480 0 1 0-960 0Z" fill="#6200EE" p-id="5587"></path><path d="M224 448m32 0l512 0q32 0 32 32l0 64q0 32-32 32l-512 0q-32 0-32-32l0-64q0-32 32-32Z" fill="#6200EE" p-id="5588"></path><path d="M576 224m0 32l0 512q0 32-32 32l-64 0q-32 0-32-32l0-512q0-32 32-32l64 0q32 0 32 32Z" fill="#6200EE" p-id="5589"></path></svg>