<?xml version="1.0" standalone="no"?><!DOCTYPE svg PUBLIC "-//W3C//DTD SVG 1.1//EN" "http://www.w3.org/Graphics/SVG/1.1/DTD/svg11.dtd"><svg t="1584632453776" class="icon" viewBox="0 0 1024 1024" version="1.1" xmlns="http://www.w3.org/2000/svg" p-id="2938" xmlns:xlink="http://www.w3.org/1999/xlink" width="32" height="32"><defs><style type="text/css"></style></defs><path d="M512 0C229.6832 0 0 229.6832 0 512s229.6832 512 512 512 512-229.6832 512-512S794.3168 0 512 0m0 51.2c254.1056 0 460.8 206.7456 460.8 460.8 0 97.024-30.3104 186.9824-81.664 261.3248-55.7568-83.5584-137.8816-146.1248-235.1104-177.9712-32.7168-10.6496-64.1536 0.9216-92.0064 11.2128-18.4832 6.7584-35.9424 13.1584-52.0192 13.1584-14.9504 0-31.5904-6.6048-49.152-13.6704-26.4704-10.5984-56.4736-22.6816-87.9104-12.8512-98.7648 30.5664-185.0368 95.3344-242.0224 180.1216C81.5104 699.0336 51.2 609.024 51.2 512c0-254.0544 206.6944-460.8 460.8-460.8m0 921.6c-137.5232 0-260.864-60.8768-345.344-156.7232 50.0736-82.0736 130.3552-145.152 223.4368-173.9776 13.8752-4.352 32.4096 2.9696 53.7088 11.4688 20.2752 8.1408 43.3664 17.3568 68.1984 17.3568 25.1904 0 48.8448-8.6528 69.632-16.3328 22.9888-8.448 42.6496-15.7696 58.4704-10.5472 91.648 30.0032 167.936 90.9312 217.2416 172.032C772.8128 911.9232 649.5232 972.8 512 972.8" p-id="2939" fill="#6200EE"></path><path d="M512 561.18272c119.7568 0 217.1904-97.4336 217.1904-217.1904 0-119.808-97.4336-217.2416-217.1904-217.2416s-217.1904 97.4336-217.1904 217.2416c0 119.7568 97.4336 217.1904 217.1904 217.1904m0-383.232c91.5456 0 165.9904 74.496 165.9904 166.0416 0 91.4944-74.4448 165.9904-165.9904 165.9904s-165.9904-74.496-165.9904-165.9904c0-91.5456 74.4448-166.0416 165.9904-166.0416" p-id="2940" fill="#6200EE"></path></svg>