<?xml version="1.0" standalone="no"?><!DOCTYPE svg PUBLIC "-//W3C//DTD SVG 1.1//EN" "http://www.w3.org/Graphics/SVG/1.1/DTD/svg11.dtd"><svg t="1584691809125" class="icon" viewBox="0 0 1024 1024" version="1.1" xmlns="http://www.w3.org/2000/svg" p-id="8432" xmlns:xlink="http://www.w3.org/1999/xlink" width="32" height="32"><defs><style type="text/css"></style></defs><path d="M1012.090487 706.568656L809.12232 504.151819l154.844942-154.372374A203.519497 203.519497 0 0 0 1023.904699 204.858441c0-54.739184-21.265582-106.170388-60.016198-144.921004A203.519497 203.519497 0 0 0 818.967497 0.078761C764.385836 0.078761 712.954632 21.344344 674.204016 60.09496L520.067926 214.152288 316.863475 11.735451a39.932038 39.932038 0 0 0-56.708219 0.157523L11.58423 262.984365a40.010799 40.010799 0 0 0 0.157522 56.471935l201.944269 201.077893L101.608527 632.611687a40.010799 40.010799 0 0 0-10.238984 17.563796L1.58153 973.254808a40.010799 40.010799 0 0 0 49.462169 49.225884l323.079325-91.83581a40.010799 40.010799 0 0 0 17.327511-66.710919L187.694754 659.705614 662.389803 185.089326l176.425571 176.42557L475.567727 723.896167a40.010799 40.010799 0 0 0 0 56.708219l233.606357 231.794845A40.010799 40.010799 0 0 0 737.213148 1023.977159h0.157523a40.010799 40.010799 0 0 0 28.354109-11.814212l246.601991-249.122356a40.010799 40.010799 0 0 0-0.157523-56.471935z m-725.392634 165.714017l-189.027397 53.715286 52.927671-190.287579 136.178487 136.572293zM270.315479 463.983497L96.489035 290.944668l192.335376-194.22565 63.402939 63.166655-78.761415 80.100359a40.010799 40.010799 0 0 0 57.023265 56.156889l78.446369-79.785313 54.581661 54.345376L270.236717 463.983497z m448.625021-335.523629l11.814212-11.814212c23.628425-23.628425 54.975468-36.545297 88.370308-36.545297 33.316079 0 64.741883 12.995634 88.291546 36.545297 23.628425 23.628425 36.545297 54.975468 36.545297 88.291546 0 33.39484-12.995634 64.741883-36.545297 88.212785l-11.892973 11.971736L718.861738 128.459868z m18.115125 798.955796L560.472532 752.171515l191.941569-191.390239 53.951569 53.715285-76.792379 77.34371a40.010799 40.010799 0 0 0 56.708219 56.314412l76.713618-77.186187 64.426838 64.111792-190.445102 192.335376z" fill="#6200EE" p-id="8433"></path></svg>