<?xml version="1.0" standalone="no"?><!DOCTYPE svg PUBLIC "-//W3C//DTD SVG 1.1//EN" "http://www.w3.org/Graphics/SVG/1.1/DTD/svg11.dtd"><svg t="1585303925567" class="icon" viewBox="0 0 1024 1024" version="1.1" xmlns="http://www.w3.org/2000/svg" p-id="1893" xmlns:xlink="http://www.w3.org/1999/xlink" width="16" height="16"><defs><style type="text/css"></style></defs><path d="M764.76871147 901.25653333a455.0018848 455.0018848 0 0 1-56.97991147 31.63022187l-0.27306667 0.15473813c-9.46631147 4.41457813-19.20568853 8.51057813-29.03608853 12.288l-1.6384 0.65536q-14.88213333 5.66158187-30.3104 10.34922667c-0.54613333 0.17294187-1.09226667 0.31857813-1.6384 0.48241813-9.1932448 2.73066667-18.56853333 5.17006187-27.94382293 7.34549334-1.8204448 0.4096-3.64088853 0.84650667-5.3703104 1.23790186-10.0124448 2.1936352-20.20693333 4.13240853-30.40142294 5.66158187-0.8192 0.12743147-1.72942187 0.20024853-2.54862186 0.31857813-9.1932448 1.31982187-18.47751147 2.32106667-27.8528 3.0947552-2.6396448 0.21845333-5.18826667 0.4278048-7.82791147 0.5916448-10.19448853 0.68266667-20.57102187 1.14688-30.9475552 1.14688s-20.75306667-0.46421333-30.9475552-1.14688c-2.6396448-0.16384-5.18826667-0.37319147-7.82791147-0.5916448a465.16906667 465.16906667 0 0 1-27.8528-3.0947552c-0.8192-0.11832853-1.72942187-0.19114667-2.54862186-0.31857813a464.4226848 464.4226848 0 0 1-30.40142294-5.66158187c-1.72942187-0.3913952-3.54986667-0.82830187-5.3703104-1.23790186a470.10247147 470.10247147 0 0 1-27.94382293-7.34549334c-0.54613333-0.16384-1.09226667-0.3094752-1.6384-0.48241813q-15.47377813-4.66033813-30.3104-10.34922667l-1.6384-0.65536a454.8835552 454.8835552 0 0 1-29.03608853-12.288l-0.27306667-0.15473813a455.0018848 455.0018848 0 0 1-56.97991147-31.63022187 464.21333333 464.21333333 0 1 1 505.53742294 0zM512 120.6044448a391.3500448 391.3500448 0 0 0-252.4956448 690.3853504c10.28551147-102.67306667 53.79413333-190.9737248 115.23413333-244.46748373a199.55712 199.55712 0 0 0 274.52302294 0c61.44 53.49376 104.94862187 141.79441813 115.23413333 244.46748373A391.3500448 391.3500448 0 0 0 512 120.6044448z m0 464.21333333a163.84 163.84 0 1 1 163.84-163.84 163.84 163.84 0 0 1-163.84 163.84z" p-id="1894" fill="#ffffff"></path></svg>