<?xml version="1.0" standalone="no"?><!DOCTYPE svg PUBLIC "-//W3C//DTD SVG 1.1//EN" "http://www.w3.org/Graphics/SVG/1.1/DTD/svg11.dtd"><svg t="1585499298374" class="icon" viewBox="0 0 1024 1024" version="1.1" xmlns="http://www.w3.org/2000/svg" p-id="1896" xmlns:xlink="http://www.w3.org/1999/xlink" width="16" height="16"><defs><style type="text/css"></style></defs><path d="M931.747411 566.463426l0-0.007163c12.536524 0 22.706141-10.113335 22.706141-22.555715L954.453552 251.687276c0-18.066471-5.702885-34.776038-15.298428-48.581462-0.387833-0.627287-0.49221-1.346671-0.940418-1.955538-0.75213-0.977257-1.774413-1.509377-2.64627-2.347464-15.827477-19.824511-40.001039-32.774451-67.467601-32.774451L153.088142 166.028361c-47.713698 0-86.364997 38.331004-86.364997 85.658915l0 518.945179c0 47.334052 38.651298 85.639472 86.364997 85.639472l715.024973 0c47.702442 0 86.34146-38.306444 86.34146-85.639472l0-71.371514c-0.070608-12.389168-10.1952-22.434965-22.706141-22.434965-12.497639 0-26.547633 8.281617-26.596751 20.553105l0 66.197678c0 24.670889-20.177552 44.650943-44.99989 44.650943L161.260266 808.227702c-24.822338 0-44.99989-19.97903-44.99989-44.650943l0-504.827647c0-2.439562 0.352017-4.767584 0.728594-7.113001l393.281131 293.602921c0.013303 0 0.058328 0.01535 0.095167 0.042979 3.5038 2.601244 7.500834 3.699252 11.523451 4.140297 1.164522 0.212848 2.304486 0.137123 3.480264 0.160659 1.162476-0.023536 2.303462 0.052189 3.456728-0.160659 4.057409-0.441045 8.054443-1.539053 11.534707-4.140297 0.01228-0.027629 0.057305-0.042979 0.094144-0.042979l364.367615-289.734824c0.068562 1.086751 0.327458 2.142803 0.327458 3.244904l0 284.83728C905.15066 555.895743 919.178141 566.463426 931.747411 566.463426zM525.368984 497.482355l-376.914372-281.308921c4.079922-1.218758 8.324596-2.072195 12.805654-2.072195l698.890504 0c5.904477 0 11.546987 1.202385 16.754592 3.267417L525.368984 497.482355z" p-id="1897" fill="#6200EE"></path></svg>