<?xml version="1.0" standalone="no"?><!DOCTYPE svg PUBLIC "-//W3C//DTD SVG 1.1//EN" "http://www.w3.org/Graphics/SVG/1.1/DTD/svg11.dtd"><svg t="1584427885399" class="icon" viewBox="0 0 1152 1024" version="1.1" xmlns="http://www.w3.org/2000/svg" p-id="2681" xmlns:xlink="http://www.w3.org/1999/xlink" width="36" height="32"><defs><style type="text/css"></style></defs><path d="M192 128a64 64 0 0 0-64 64v640a64 64 0 0 0 64 64h768a64 64 0 0 0 64-64V192a64 64 0 0 0-64-64H192z m768-128a192 192 0 0 1 192 192v640a192 192 0 0 1-192 192H192a192 192 0 0 1-192-192V192a192 192 0 0 1 192-192h768z" p-id="2682" fill="#6200EE"></path><path d="M256 448h192v320H256z" p-id="2683" fill="#6200EE"></path><path d="M576 256m-64 0a64 64 0 1 0 128 0 64 64 0 1 0-128 0Z" p-id="2684" fill="#6200EE"></path><path d="M576 448h320v64H576zM576 704h320v64H576z" p-id="2685" fill="#6200EE"></path></svg>