<?xml version="1.0" standalone="no"?><!DOCTYPE svg PUBLIC "-//W3C//DTD SVG 1.1//EN" "http://www.w3.org/Graphics/SVG/1.1/DTD/svg11.dtd"><svg t="1584689256720" class="icon" viewBox="0 0 1024 1024" version="1.1" xmlns="http://www.w3.org/2000/svg" p-id="1893" xmlns:xlink="http://www.w3.org/1999/xlink" width="32" height="32"><defs><style type="text/css"></style></defs><path d="M1006.073014 854.670945a63.013379 63.013379 0 0 1-60.219683 43.224695H630.708834a126.10436 126.10436 0 1 1-252.131118 0H63.510822a63.013379 63.013379 0 0 1-37.87011-113.532726 251.432694 251.432694 0 0 0 101.193899-201.766977V393.5558a378.235479 378.235479 0 1 1 756.393355 0v189.195342a250.889475 250.889475 0 0 0 100.883488 201.766977c21.573546 16.296564 30.497855 44.54394 21.96156 70.230429zM767.522365 582.98395V393.788608a262.840289 262.840289 0 0 0-525.137358 0v189.195342c0 66.583102-18.159028 132.002164-52.459414 189.11774h630.211391a366.672679 366.672679 0 0 1-52.614619-189.11774z" fill="#6200EE" p-id="1894"></path></svg>