<?xml version="1.0" standalone="no"?><!DOCTYPE svg PUBLIC "-//W3C//DTD SVG 1.1//EN" "http://www.w3.org/Graphics/SVG/1.1/DTD/svg11.dtd"><svg t="1584689304291" class="icon" viewBox="0 0 1024 1024" version="1.1" xmlns="http://www.w3.org/2000/svg" p-id="2663" xmlns:xlink="http://www.w3.org/1999/xlink" width="32" height="32"><defs><style type="text/css"></style></defs><path d="M512 1024C229.219412 1024 0 794.814907 0 512S229.219412 0 512 0s512 229.219412 512 512-229.173653 512-512 512z m188.836893-559.40656H559.475199V323.163107a60.630977 60.630977 0 0 0-121.204755 0v141.373134H296.90875a60.630977 60.630977 0 0 0 0 121.193315h141.361694v141.361694a60.630977 60.630977 0 1 0 121.261954 0V585.729556h141.304495a60.630977 60.630977 0 1 0 0-121.193315z" p-id="2664" fill="#6200EE"></path></svg>