<?xml version="1.0" standalone="no"?><!DOCTYPE svg PUBLIC "-//W3C//DTD SVG 1.1//EN" "http://www.w3.org/Graphics/SVG/1.1/DTD/svg11.dtd"><svg t="1583410869204" class="icon" viewBox="0 0 1024 1024" version="1.1" xmlns="http://www.w3.org/2000/svg" p-id="15447" xmlns:xlink="http://www.w3.org/1999/xlink" width="32" height="32"><defs><style type="text/css"></style></defs><path d="M886.682768 918.668726c-10.46015-92.195273-54.368452-177.214396-123.575722-239.488776-12.649483-11.433187-26.028745-21.771707-39.894524-31.258819l-0.12163-0.12163c-0.12163-0.12163-0.243259-0.12163-0.364889-0.243259l-3.284-2.189334c-1.216296-0.729778-2.310963-1.581185-3.52726-2.310963l-2.919112-1.824445c-1.459556-0.973037-2.919112-1.824445-4.378667-2.797482-0.729778-0.486519-1.459556-0.851408-2.067704-1.337926-51.81423-31.502079-109.953201-49.989785-170.524765-54.246822-0.486519 0-0.973037-0.12163-1.459556-0.12163l-6.568001-0.364889c-0.729778 0-1.581185-0.12163-2.310963-0.12163-1.946074-0.12163-4.013778-0.12163-5.959853-0.243259-0.851408 0-1.581185 0-2.432593-0.12163-2.675852 0-5.351704-0.12163-8.027557-0.121629h-0.121629-0.12163c-2.675852 0-5.351704 0-8.027557 0.121629-0.851408 0-1.581185 0-2.432593 0.12163-1.946074 0-4.013778 0.12163-5.959852 0.243259-0.729778 0-1.581185 0.12163-2.310964 0.12163l-6.568001 0.364889c-0.486519 0-0.973037 0-1.459555 0.12163-60.571564 4.257038-118.710536 22.744744-170.524766 54.246822-0.729778 0.486519-1.459556 0.851408-2.067704 1.337926-1.459556 0.973037-2.919112 1.824445-4.378667 2.797482l-2.919112 1.824445c-1.216296 0.729778-2.310963 1.581185-3.527259 2.310963l-3.284001 2.189334c-0.12163 0.12163-0.243259 0.12163-0.364889 0.243259l-0.121629 0.12163c-13.86578 9.487112-27.245041 19.947262-39.894525 31.258819-69.328899 62.274379-113.115572 147.293503-123.575721 239.488776-1.216296 10.703409 6.446371 20.312151 17.14978 21.528447 0.729778 0.12163 1.459556 0.12163 2.189334 0.12163 9.730372 0 18.244447-7.297779 19.339113-17.27141 9.365483-82.70816 48.773489-158.969949 110.926239-214.919587 11.554816-10.33852 23.717781-19.947262 36.367264-28.582967 0.729778-0.486519 1.581185-1.094667 2.310964-1.581185 1.337926-0.851408 2.554223-1.702815 3.892148-2.554223 0.608148-0.486519 1.337926-0.851408 1.946075-1.337926l4.743556-2.919112c0.364889-0.243259 0.851408-0.486519 1.216296-0.729777 46.340896-28.218078 98.763274-45.002969 153.253356-48.895119 0.364889 0 0.851408 0 1.216296-0.121629 1.946074-0.12163 3.892149-0.243259 5.959853-0.364889 0.729778 0 1.337926-0.12163 2.067704-0.12163 1.824445-0.12163 3.52726-0.12163 5.351705-0.243259h2.189333c2.432593 0 4.743556-0.12163 7.176149-0.12163h0.24326c2.432593 0 4.743556 0 7.176149 0.12163h2.189333c1.824445 0 3.52726 0.12163 5.351705 0.243259 0.729778 0 1.337926 0.12163 2.067704 0.12163 1.946074 0.12163 4.013778 0.243259 5.959853 0.364889 0.364889 0 0.851408 0 1.216296 0.121629 54.490082 3.770519 107.03409 20.67704 153.253356 48.895119 0.364889 0.243259 0.851408 0.486519 1.216296 0.729777l4.743556 2.919112c0.608148 0.486519 1.337926 0.851408 1.946075 1.337926 1.337926 0.851408 2.675852 1.702815 3.892148 2.554223 0.729778 0.486519 1.581185 0.973037 2.310964 1.581185 12.649483 8.635705 24.812448 18.122817 36.367264 28.582967 62.15275 55.949638 101.560755 132.211427 110.926239 214.919587 1.094667 9.973631 9.487112 17.27141 19.339113 17.27141 0.729778 0 1.459556 0 2.189334-0.12163 10.946668-1.216296 18.609336-10.825039 17.39304-21.528447zM448.937667 518.507186l0.364889 0.12163c16.176743 4.500297 32.961634 7.176149 49.868156 7.905927 3.284 0.12163 6.689631 0.243259 9.973631 0.243259 20.312151 0 40.381043-2.797482 59.720156-8.149186 36.367265-10.095261 69.815418-29.677634 96.69557-56.679416 41.840599-41.840599 64.828602-97.425347 64.828602-156.537356 0-59.112009-22.988003-114.696757-64.828602-156.537356C623.71947 107.03409 568.134722 84.046086 509.022713 84.046086c-59.112009 0-114.696757 22.988003-156.537356 64.828602C310.644758 190.715287 287.656755 246.300036 287.656755 305.412044c0 59.112009 22.988003 114.696757 64.828602 156.537356 27.001782 26.758522 60.328305 46.340896 96.45231 56.557786z m-68.72075-342.022568c34.42119-34.42119 80.275567-53.395415 128.927426-53.395415 48.773489 0 94.506236 18.974225 128.927426 53.395415 34.42119 34.42119 53.395415 80.275567 53.395415 128.927426 0 48.773489-18.974225 94.506236-53.395415 128.927426-22.258225 22.258225-49.746526 38.313339-79.667419 46.705785-18.609336 5.230075-37.94845 7.419408-57.530823 6.568001-13.86578-0.608148-27.60993-2.797482-40.989191-6.568001l-0.364889-0.12163c-29.799264-8.392446-57.287564-24.447559-79.42416-46.584155-34.42119-34.42119-53.395415-80.275567-53.395415-128.927426s18.974225-94.506236 53.517045-128.927426z" p-id="15448" fill="#6200EE"></path></svg>