<?xml version="1.0" standalone="no"?><!DOCTYPE svg PUBLIC "-//W3C//DTD SVG 1.1//EN" "http://www.w3.org/Graphics/SVG/1.1/DTD/svg11.dtd"><svg t="1583396406224" class="icon" viewBox="0 0 1024 1024" version="1.1" xmlns="http://www.w3.org/2000/svg" p-id="12337" data-spm-anchor-id="a313x.7781069.0.i13" xmlns:xlink="http://www.w3.org/1999/xlink" width="32" height="32"><defs><style type="text/css"></style></defs><path d="M363.950165 493.10677a26.570336 26.570336 0 0 0 0 37.575025l42.800491 42.800492 169.148026 169.148026a26.570336 26.570336 0 0 0 37.585094 0l42.81056-42.800491a26.580404 26.580404 0 0 0 0-37.585095L562.870257 568.860921h425.497901a26.560267 26.560267 0 0 0 26.570336-26.580404v-60.550966a26.570336 26.570336 0 0 0-26.570336-26.580404H562.66889l93.393875-93.393874a26.590472 26.590472 0 0 0 0-37.585095l-42.790424-42.790423a26.590472 26.590472 0 0 0-37.595162 0L363.950165 493.10677M843.857347 0H88.79264A79.731144 79.731144 0 0 0 9.061496 79.731144v864.537712A79.731144 79.731144 0 0 0 88.79264 1023.949658h755.064707a79.731144 79.731144 0 0 0 79.700939-79.680802V832.087469a26.580404 26.580404 0 0 0-26.580404-26.580404H839.397075a26.580404 26.580404 0 0 0-26.590473 26.580404v42.669603a39.860538 39.860538 0 0 1-39.860538 39.316848H158.576269a39.870606 39.870606 0 0 1-39.860537-39.870606V148.850263a39.860538 39.860538 0 0 1 39.860537-39.860538h614.389932a39.860538 39.860538 0 0 1 39.840401 39.326916v43.918077a26.580404 26.580404 0 0 0 26.570336 26.580404h57.611012a26.580404 26.580404 0 0 0 26.580404-26.580404V79.721076A79.731144 79.731144 0 0 0 843.857347 0z" p-id="12338" fill="#6200EE"></path></svg>