<?xml version="1.0" standalone="no"?><!DOCTYPE svg PUBLIC "-//W3C//DTD SVG 1.1//EN" "http://www.w3.org/Graphics/SVG/1.1/DTD/svg11.dtd"><svg t="1583396387727" class="icon" viewBox="0 0 1024 1024" version="1.1" xmlns="http://www.w3.org/2000/svg" p-id="11555" xmlns:xlink="http://www.w3.org/1999/xlink" width="32" height="32"><defs><style type="text/css"></style></defs><path d="M915.21 174.84c-6.195-14.805-15.196-28.062-26.517-39.386a122.154 122.154 0 0 0-39.386-26.612c-15.388-6.485-31.549-9.776-48.292-9.776h-578.03c-16.744 0-32.904 3.291-48.195 9.776-14.805 6.29-28.065 15.193-39.386 26.514a122.135 122.135 0 0 0-26.612 39.389c-6.485 15.29-9.776 31.549-9.776 48.191v578.032c0 16.643 3.291 32.901 9.776 48.191 6.192 14.808 15.193 28.065 26.514 39.389a122.182 122.182 0 0 0 39.389 26.612c15.385 6.485 31.545 9.773 48.289 9.773h578.127c16.646 0 32.904-3.288 48.097-9.773 14.805-6.29 28.065-15.193 39.386-26.517a122.146 122.146 0 0 0 26.615-39.386c6.482-15.29 9.773-31.549 9.773-48.195V697.808c0-22.841-18.484-41.322-41.322-41.322-22.841 0-41.325 18.481-41.325 41.322v103.161c0 5.514-1.16 10.933-3.288 16.063-2.033 4.937-5.032 9.291-8.903 13.162-3.774 3.774-8.225 6.677-13.162 8.805-5.032 2.131-10.451 3.194-16.063 3.194H222.888c-5.612 0-11.031-1.062-16.063-3.194-4.937-2.128-9.291-5.032-13.162-8.903-3.774-3.774-6.775-8.128-8.805-13.065-2.226-5.032-3.291-10.451-3.291-16.063V222.937c0-5.514 1.16-10.933 3.291-16.063 2.03-4.937 5.032-9.291 8.903-13.162 3.774-3.774 8.225-6.677 13.159-8.805 5.035-2.128 10.454-3.194 16.066-3.194h578.029c5.615 0 11.034 1.066 16.066 3.194 4.934 2.128 9.291 5.032 13.159 8.903 3.777 3.774 6.775 8.128 8.808 13.065 2.226 5.032 3.288 10.451 3.288 16.063v103.259c0 22.838 18.484 41.322 41.325 41.322 22.838 0 41.322-18.484 41.322-41.322V223.034c0-16.646-3.291-32.904-9.773-48.194z" p-id="11556" data-spm-anchor-id="a313x.7781069.0.i11" fill="#6200EE" class="selected"></path><path d="M730.565 665.096c8.128 8.033 18.676 12.097 29.225 12.097s21.094-4.064 29.127-11.999l123.871-123.871c0.016-0.016 0.019-0.038 0.035-0.054 3.824-3.812 6.866-8.373 8.969-13.443 1.293-3.14 1.497-6.498 1.98-9.817 0.309-2.046 1.211-3.878 1.211-6.009 0-11.81-5.063-22.302-12.995-29.83L788.918 359.1c-16.063-16.164-42.192-16.164-58.352 0-16.164 16.063-16.164 42.192 0 58.352l53.223 53.226h-271.74c-22.838 0-41.322 18.484-41.322 41.322 0 22.841 18.484 41.325 41.322 41.325h271.932l-53.415 53.419c-16.164 16.062-16.164 42.191-0.001 58.352z" p-id="11557" fill="#6200EE"></path></svg>