<?xml version="1.0" standalone="no"?><!DOCTYPE svg PUBLIC "-//W3C//DTD SVG 1.1//EN" "http://www.w3.org/Graphics/SVG/1.1/DTD/svg11.dtd"><svg t="1583411727488" class="icon" viewBox="0 0 1094 1024" version="1.1" xmlns="http://www.w3.org/2000/svg" p-id="16227" xmlns:xlink="http://www.w3.org/1999/xlink" width="34.1875" height="32"><defs><style type="text/css"></style></defs><path d="M273.512733 354.647654c-37.766963 0-68.399933 31.770969-68.399933 70.93793s30.63297 70.938931 68.399933 70.938931c37.766963 0 68.355933-31.771969 68.355933-70.938931 0-39.209962-30.58997-70.937931-68.355933-70.93793z m273.512733 0c-37.766963 0-68.399933 31.770969-68.399933 70.93793s30.63297 70.938931 68.399933 70.938931c37.766963 0 68.355933-31.771969 68.355933-70.938931 0-39.209962-30.58997-70.937931-68.355933-70.93793z m273.512733 0c-37.766963 0-68.399933 31.770969-68.399934 70.93793s30.63297 70.938931 68.399934 70.938931c37.766963 0 68.355933-31.771969 68.355933-70.938931 0.044-39.209962-30.58997-70.937931-68.355933-70.93793zM957.295065 0h-820.539199C61.22394 0 0 63.542938 0 141.876861v531.971481c0 78.333924 62.623939 150.584853 139.863863 150.584853h208.394797c36.321965 38.685962 186.688818 194.34681 186.688818 194.34681 6.694993 6.958993 17.504983 6.958993 24.155976 0 0 0 110.061893-124.809878 181.787822-194.34681H954.189068c77.239925 0 139.862863-72.207929 139.862864-150.584853V141.876861C1094.050932 63.542938 1032.828991 0 957.295065 0z m68.399933 673.848342c0 39.166962-32.865968 80.259922-71.50693 80.259922H744.436273c-25.425975 0-48.225953 26.124974-48.225953 26.124974l-147.259856 152.729851-147.258856-152.729851s-28.050973-26.125974-52.076949-26.125974H139.863863c-38.641962 0-71.46393-41.09196-71.46393-80.259922V141.877861c0-39.166962 30.63397-70.938931 68.356933-70.93893h820.538199c37.765963 0 68.399933 31.771969 68.399933 70.93893v531.971481z m0 0" p-id="16228" fill="#6200EE"></path></svg>