<?xml version="1.0" standalone="no"?><!DOCTYPE svg PUBLIC "-//W3C//DTD SVG 1.1//EN" "http://www.w3.org/Graphics/SVG/1.1/DTD/svg11.dtd"><svg t="1584879452733" class="icon" viewBox="0 0 1025 1024" version="1.1" xmlns="http://www.w3.org/2000/svg" p-id="1890" xmlns:xlink="http://www.w3.org/1999/xlink" width="32.03125" height="32"><defs><style type="text/css"></style></defs><path d="M394.127183 640.227283c6.19534-19.767289 11.150408-30.169921 23.541088-46.816059 10.324363-14.045179 30.974292-35.892031 49.146085-52.015569 53.689335-46.295868 57.818357-50.456198 69.381788-63.982389 20.236907-23.926415 29.32461-48.894418 29.32461-83.225874 0-71.262666-44.60404-114.957575-116.878191-114.957575-41.298655 0-73.925037 16.125946-94.574966 46.294663-15.280635 22.368248-22.715043 43.694908-28.49736 83.227078l59.057425 8.843261c2.891159-23.928824 5.782317-35.371839 12.803703-47.855239 10.325567-20.287481 28.496156-30.691317 52.450267-30.691317 35.103314 0 56.992312 21.848056 56.992312 57.219896 0 26.527374-11.564635 43.693704-49.559108 76.464585-41.298655 34.850443-53.68813 46.814855-68.14272 62.940802-26.844065 30.688909-45.428881 63.981185-56.579289 101.95278-5.368091 18.726905-8.259249 36.931211-10.737385 66.58094 14.454589-2.080767 21.062952-2.599755 53.276312-2.599755l132.56944 0c26.433451 0 42.949541 1.039179 62.362811 3.121151l0-68.661707c-13.629748 2.600959-34.278473 4.161535-60.297697 4.161535L394.127183 640.228487z" p-id="1891" fill="#6200EE"></path><path d="M297.034344 279.760845c-18.235613 2.122912-25.833785 2.652737-51.667571 2.652737l-46.601721 0c-23.807205 0-34.951592-0.529825-50.653678-3.182562l0 67.37929c18.741355-2.122912 33.431957-3.183767 52.174517-3.183767l24.312947 0 0 292.330943c0 27.589433-1.012688 48.280303-4.050753 68.971173l76.487463 0c-3.039269-21.751724-4.051957-40.85312-4.051957-68.971173L292.983591 367.299976C292.981183 335.468331 293.993871 311.061461 297.034344 279.760845z" p-id="1892" fill="#6200EE"></path><path d="M800.37893 483.796452c25.625468-7.159862 36.262909-11.251556 46.90035-19.945503 20.793223-16.365572 33.363321-44.493258 33.363321-75.177351 0-66.484608-52.220274-109.443783-132.968012-109.443783-38.682042 0-70.112705 9.205709-94.768834 28.127687-22.72588 17.387893-33.846184 35.287549-45.937032 73.132708l69.144571 12.273878c5.801584-20.967824 10.637441-29.661771 20.306747-39.378039 11.60678-10.229235 29.012735-15.855013 52.70675-15.855013 41.097562 0 63.823442 19.944299 63.823442 55.233052 0 39.379243-28.527464 62.904677-76.880016 62.904677-20.790815 0-31.428256-0.510559-46.90035-2.556406l0 63.415236c16.437821-2.045847 30.460121-2.55761 51.735003-2.55761 21.276086 0 44.001966 5.114015 55.607542 12.273878 17.405955 10.739794 27.076466 30.173534 27.076466 53.698968 0 40.402769-30.462529 66.483404-78.332218 66.483404-23.207539 0-42.549764-6.6481-58.505925-19.944299-12.088439-10.229235-16.437821-18.411419-22.723472-41.936853l-69.144571 14.319725c8.702376 29.662975 14.989231 42.959174 27.075262 57.278899 27.561737 33.241702 66.243779 48.584952 122.815843 48.584952 51.737411 0 92.35211-14.320929 118.945712-41.42509 17.890023-18.921977 29.011531-47.049664 29.011531-74.666792 0-30.173534-7.252582-51.653121-23.209947-70.575098C852.598 498.116177 834.709182 489.421026 800.37893 483.796452z" p-id="1893" fill="#6200EE"></path><path d="M891.516055 163.211387 138.505888 163.211387c-44.039295 0-79.867506 41.002434-79.867506 91.400833l0 484.182983c0 50.398399 35.828211 91.400833 79.867506 91.400833l753.010167 0c44.038091 0 79.866302-41.002434 79.866302-91.400833L971.382357 254.61222C971.382357 204.213821 935.554145 163.211387 891.516055 163.211387zM925.624743 738.795203c0 24.741623-15.620204 45.643219-34.108688 45.643219L138.505888 784.438423c-18.488484 0-34.109893-20.901596-34.109893-45.643219L104.395995 254.61222c0-24.740419 15.620204-45.643219 34.109893-45.643219l753.010167 0c18.488484 0 34.108688 20.901596 34.108688 45.643219L925.624743 738.795203z" p-id="1894" fill="#6200EE"></path></svg>