<?xml version="1.0" standalone="no"?><!DOCTYPE svg PUBLIC "-//W3C//DTD SVG 1.1//EN" "http://www.w3.org/Graphics/SVG/1.1/DTD/svg11.dtd"><svg t="1583676046886" class="icon" viewBox="0 0 1024 1024" version="1.1" xmlns="http://www.w3.org/2000/svg" p-id="3544" xmlns:xlink="http://www.w3.org/1999/xlink" width="32" height="32"><defs><style type="text/css"></style></defs><path d="M888.86116 148.974963H755.583714V105.680924c0-23.910573-19.383466-43.294039-43.294038-43.294038s-43.294039 19.383466-43.294039 43.294038v43.294039H353.204367V105.680924c0-23.910573-19.383466-43.294039-43.294038-43.294038S266.61629 81.770352 266.61629 105.680924v43.294039H133.339868c-38.913265 0-70.458725 31.54546-70.458725 70.458725v665.538909c0 38.913265 31.54546 70.458725 70.458725 70.458725h755.522315c38.913265 0 70.458725-31.54546 70.458725-70.458725V219.433688c0-38.913265-31.54546-70.458725-70.459748-70.458725zM731.572858 461.783295l-218.977294 218.97934c-10.868535 10.868535-25.148773 16.304338-39.426964 16.304338-14.275121 0-28.548196-5.431709-39.418778-16.297175l-143.119605-143.125745c-15.914458-15.912411-15.914458-41.712007 0-57.624418 15.916505-15.912411 41.717124-15.912411 57.624418 0l124.914988 124.914987L673.944346 404.157853c15.916505-15.912411 41.712007-15.912411 57.629535 0 15.911388 15.912411 15.911388 41.713031-0.001023 57.625442z" p-id="3545" fill="#6200EE"></path></svg>