<?xml version="1.0" standalone="no"?><!DOCTYPE svg PUBLIC "-//W3C//DTD SVG 1.1//EN" "http://www.w3.org/Graphics/SVG/1.1/DTD/svg11.dtd"><svg t="1584947563454" class="icon" viewBox="0 0 1024 1024" version="1.1" xmlns="http://www.w3.org/2000/svg" p-id="2671" xmlns:xlink="http://www.w3.org/1999/xlink" width="32" height="32"><defs><style type="text/css"></style></defs><path d="M875.52 848.4864H156.2624c-42.1888 0-76.5952-34.4064-76.5952-76.5952V314.1632c0-42.1888 34.4064-76.5952 76.5952-76.5952h125.3376v49.5616H156.2624c-14.9504 0-27.0336 12.0832-27.0336 27.0336v457.728c0 14.9504 12.0832 27.0336 27.0336 27.0336h719.2576c14.9504 0 27.0336-12.0832 27.0336-27.0336V314.1632c0-14.9504-12.0832-27.0336-27.0336-27.0336h-124.5184V237.568h124.5184c42.1888 0 76.5952 34.4064 76.5952 76.5952v457.728c0 42.1888-34.2016 76.5952-76.5952 76.5952z" p-id="2672" fill="#6200EE"></path><path d="M380.7232 237.568h270.336v49.5616h-270.336zM675.84 190.6688h49.5616v160.1536H675.84zM306.3808 190.6688h49.5616v160.1536h-49.5616zM346.427392 531.093504l152.05376 152.055808-35.045376 35.045376-152.05376-152.055808z" p-id="2673" fill="#6200EE"></path><path d="M694.86592 416.780288l35.045376 35.045376-266.602496 266.602496-35.045376-35.045376z" p-id="2674" fill="#6200EE"></path></svg>