<?xml version="1.0" standalone="no"?><!DOCTYPE svg PUBLIC "-//W3C//DTD SVG 1.1//EN" "http://www.w3.org/Graphics/SVG/1.1/DTD/svg11.dtd"><svg t="1584951475541" class="icon" viewBox="0 0 1045 1024" version="1.1" xmlns="http://www.w3.org/2000/svg" p-id="1858" xmlns:xlink="http://www.w3.org/1999/xlink" width="32.65625" height="32"><defs><style type="text/css"></style></defs><path d="M563.926968 845.093594l213.543385 114.530462a29.001399 29.001399 0 0 0 31.035077-2.312951 30.37628 30.37628 0 0 0 11.736615-29.402406l-40.816783-242.537622c-4.926657-29.302154 4.60442-59.191497 25.478266-79.929287l172.71944-171.759888a30.512336 30.512336 0 0 0 7.475916-30.856056c-3.465846-10.898797-12.696168-18.833007-23.80979-20.48l-238.742377-35.388867c-28.822378-4.260699-53.749259-22.714182-66.653091-49.352503L549.182801 76.907413A29.445371 29.445371 0 0 0 522.752143 60.179692a29.445371 29.445371 0 0 0-26.423496 16.727721L389.546213 297.604476c-12.903832 26.638322-37.830713 45.091804-66.667412 49.352503l-238.67077 35.381706c-11.113622 1.646993-20.343944 9.595524-23.80979 20.487161a30.512336 30.512336 0 0 0 7.468755 30.856056l172.726602 171.759888c20.873846 20.73779 30.404923 50.627133 25.485426 79.922126l-40.816783 242.537622a30.37628 30.37628 0 0 0 11.736616 29.452532 29.001399 29.001399 0 0 0 31.078041 2.269986l213.493259-114.530462c25.779021-13.82042 56.570629-13.82042 82.349651 0z m-268.402573 167.792784a87.025678 87.025678 0 0 1-93.162518-6.888728c-27.239832-20.193566-40.888392-54.408056-35.202685-88.264503l40.759497-242.537623a30.469371 30.469371 0 0 0-8.492756-26.659804L26.706493 476.768671C2.595947 452.77986-6.068668 416.904056 4.343192 384.236308c10.419021-32.667748 38.109986-56.477538 71.429371-61.418518l238.670769-35.381706a29.545622 29.545622 0 0 0 22.18428-16.491413L443.410045 50.312056C458.318912 19.506126 489.074717 0 522.752143 0s64.433231 19.506126 79.342098 50.312056l106.768112 220.625454a29.545622 29.545622 0 0 0 22.18428 16.498574l238.670769 35.381706c33.326545 4.940979 61.01751 28.750769 71.436531 61.418518 10.41186 32.667748 1.747245 68.543552-22.348979 92.532363l-172.71944 171.767049a30.469371 30.469371 0 0 0-8.499916 26.659804l40.759496 242.537623c5.657063 33.849287-8.005818 68.035133-35.231328 88.214377a87.025678 87.025678 0 0 1-93.133875 6.874406l-213.536223-114.466014a28.979916 28.979916 0 0 0-27.433175 0l-213.486098 114.530462z m109.245762-366.520392h235.963972v60.186853H404.770157v-60.186853z" p-id="1859" fill="#6200EE"></path></svg>